<svg xmlns="http://www.w3.org/2000/svg" xmlns:xlink="http://www.w3.org/1999/xlink" width="64" zoomAndPan="magnify" viewBox="0 0 48 48" height="64" preserveAspectRatio="xMidYMid meet" version="1.0"><defs><clipPath id="c0fc7e2692"><path d="M 7 13 L 46.511719 13 L 46.511719 44 L 7 44 Z M 7 13 " clip-rule="nonzero"/></clipPath><clipPath id="2933bd65f0"><path d="M 44 18 L 46.511719 18 L 46.511719 21 L 44 21 Z M 44 18 " clip-rule="nonzero"/></clipPath><clipPath id="b3fb46e613"><path d="M 7.21875 15 L 8 15 L 8 16 L 7.21875 16 Z M 7.21875 15 " clip-rule="nonzero"/></clipPath><clipPath id="431df72d9b"><path d="M 7.21875 14.609375 L 8.6875 14.609375 L 8.6875 16 L 7.21875 16 Z M 7.21875 14.609375 " clip-rule="nonzero"/></clipPath><clipPath id="444ec81d08"><path d="M 7.21875 15 L 8.6875 15 L 8.6875 16 L 7.21875 16 Z M 7.21875 15 " clip-rule="nonzero"/></clipPath><clipPath id="282587d7f3"><path d="M 7.21875 15 L 8 15 L 8 16 L 7.21875 16 Z M 7.21875 15 " clip-rule="nonzero"/></clipPath><clipPath id="3364fec086"><path d="M 7.21875 14.609375 L 8.6875 14.609375 L 8.6875 16 L 7.21875 16 Z M 7.21875 14.609375 " clip-rule="nonzero"/></clipPath><clipPath id="b9df078323"><path d="M 8 14.609375 L 8.6875 14.609375 L 8.6875 15 L 8 15 Z M 8 14.609375 " clip-rule="nonzero"/></clipPath><clipPath id="0eec4a502e"><path d="M 8 15 L 8.6875 15 L 8.6875 16 L 8 16 Z M 8 15 " clip-rule="nonzero"/></clipPath><clipPath id="33c83de74f"><path d="M 8 14.609375 L 8.6875 14.609375 L 8.6875 16 L 8 16 Z M 8 14.609375 " clip-rule="nonzero"/></clipPath></defs><path fill="#004aad" d="M 26.75 35.175781 C 25.585938 34.917969 24.863281 34.117188 24.027344 33.191406 C 23.574219 32.695312 23.109375 32.179688 22.527344 31.683594 C 22.511719 31.667969 22.488281 31.65625 22.46875 31.648438 L 22.230469 31.539062 C 21.46875 28.425781 20.746094 26.277344 19.960938 24.804688 C 19.921875 24.734375 19.851562 24.683594 19.773438 24.675781 C 19.691406 24.667969 19.613281 24.699219 19.558594 24.761719 C 18.089844 26.5 16.738281 27.765625 15.421875 28.632812 C 15.34375 28.683594 15.304688 28.769531 15.3125 28.859375 C 15.316406 28.945312 15.375 29.023438 15.457031 29.0625 C 15.457031 29.0625 22.160156 32.085938 22.375 32.199219 C 22.859375 32.632812 23.265625 33.082031 23.664062 33.519531 C 24.519531 34.46875 25.328125 35.363281 26.644531 35.652344 C 26.660156 35.65625 26.679688 35.660156 26.695312 35.660156 C 26.808594 35.660156 26.910156 35.582031 26.9375 35.46875 C 26.964844 35.335938 26.882812 35.203125 26.75 35.175781 Z M 16.054688 28.792969 C 17.222656 27.964844 18.417969 26.835938 19.695312 25.355469 C 20.367188 26.71875 21 28.628906 21.664062 31.289062 Z M 16.054688 28.792969 " fill-opacity="1" fill-rule="nonzero"/><path fill="#004aad" d="M 40.449219 15.699219 C 40.265625 15.320312 39.871094 15.042969 39.28125 14.871094 C 39.265625 14.867188 39.25 14.863281 39.234375 14.859375 C 36.828125 14.648438 34.699219 14.875 32.988281 15.058594 C 31.855469 15.175781 30.871094 15.28125 30.050781 15.242188 C 29.972656 15.214844 29.898438 15.183594 29.820312 15.15625 C 29.777344 13.757812 29.632812 13.207031 29.289062 13.070312 C 29.230469 13.046875 29.152344 13.03125 29.066406 13.050781 C 29.066406 13.050781 28.566406 8.261719 24.609375 8.730469 C 23.625 8.855469 22.78125 9.460938 22.171875 10.488281 C 22.160156 10.503906 22.152344 10.523438 22.148438 10.542969 C 21.710938 12.019531 21.878906 13.425781 22.667969 14.828125 C 22.519531 15.082031 22.472656 15.34375 22.527344 15.601562 C 22.632812 16.074219 23.066406 16.519531 23.894531 17 L 23.894531 18.015625 C 20.585938 18.480469 17.007812 19.378906 15.683594 23.53125 C 12.503906 26.4375 11.148438 28.789062 11.285156 31.144531 C 11.292969 31.238281 11.355469 31.324219 11.445312 31.355469 C 13.277344 32.050781 15.210938 32.359375 16.921875 32.628906 C 18.644531 32.898438 20.140625 33.136719 21.0625 33.691406 C 21.105469 34.636719 21.3125 35.425781 21.6875 36.054688 C 21.507812 36.800781 21.28125 37.421875 20.957031 37.738281 C 20.859375 37.832031 20.855469 37.984375 20.949219 38.082031 C 21 38.132812 21.0625 38.15625 21.125 38.15625 C 21.191406 38.15625 21.25 38.132812 21.296875 38.085938 C 21.628906 37.761719 21.871094 37.25 22.0625 36.566406 C 22.554688 37.125 23.230469 37.503906 24.082031 37.707031 C 24.101562 37.710938 24.121094 37.714844 24.140625 37.714844 C 24.257812 37.714844 24.363281 37.628906 24.382812 37.507812 C 24.402344 37.382812 24.3125 37.261719 24.1875 37.230469 C 23.304688 37.019531 22.648438 36.601562 22.210938 35.964844 C 22.066406 35.757812 21.945312 35.523438 21.851562 35.269531 C 21.664062 34.78125 21.566406 34.210938 21.550781 33.546875 C 21.546875 33.46875 21.507812 33.394531 21.441406 33.347656 C 20.441406 32.6875 18.84375 32.4375 16.996094 32.144531 C 15.359375 31.886719 13.507812 31.59375 11.769531 30.957031 C 11.714844 28.828125 13.082031 26.5625 16.058594 23.847656 C 16.09375 23.820312 16.117188 23.78125 16.128906 23.742188 C 17.382812 19.71875 20.789062 18.933594 24.171875 18.46875 C 24.292969 18.453125 24.382812 18.347656 24.382812 18.226562 L 24.382812 16.855469 C 24.382812 16.765625 24.335938 16.6875 24.257812 16.640625 C 23.503906 16.222656 23.082031 15.835938 23.007812 15.5 C 22.972656 15.332031 23.015625 15.164062 23.148438 14.984375 C 23.207031 14.90625 23.214844 14.800781 23.164062 14.714844 C 22.394531 13.398438 22.210938 12.089844 22.609375 10.710938 C 23.144531 9.824219 23.835938 9.320312 24.671875 9.21875 C 28.34375 9.144531 28.652344 13.476562 28.652344 13.476562 C 28.675781 13.589844 28.773438 13.671875 28.890625 13.671875 C 28.960938 13.675781 29.023438 13.644531 29.070312 13.597656 C 29.089844 13.578125 29.109375 13.5625 29.121094 13.550781 C 29.179688 13.648438 29.28125 13.964844 29.324219 14.992188 C 28.183594 14.65625 26.914062 14.632812 25.953125 15.910156 C 25.871094 16.015625 25.894531 16.171875 26.003906 16.25 C 26.109375 16.332031 26.265625 16.3125 26.34375 16.203125 C 27.128906 15.160156 28.164062 15.015625 29.90625 15.710938 C 29.933594 15.722656 29.957031 15.726562 29.984375 15.730469 C 30.855469 15.777344 31.867188 15.667969 33.039062 15.542969 C 34.8125 15.355469 36.820312 15.140625 39.164062 15.347656 C 39.605469 15.480469 39.890625 15.671875 40.011719 15.914062 C 40.121094 16.132812 40.105469 16.421875 39.976562 16.765625 C 39.011719 19.191406 37.269531 21.070312 34.640625 22.503906 C 34.582031 22.535156 34.539062 22.589844 34.519531 22.65625 C 33.214844 27.414062 31.726562 33.476562 31.847656 38.148438 C 31.851562 38.28125 31.960938 38.386719 32.09375 38.386719 C 32.09375 38.386719 32.097656 38.386719 32.097656 38.386719 C 32.234375 38.382812 32.339844 38.269531 32.335938 38.132812 C 32.21875 33.5625 33.671875 27.597656 34.964844 22.882812 C 37.648438 21.398438 39.433594 19.453125 40.429688 16.945312 C 40.617188 16.464844 40.621094 16.042969 40.449219 15.699219 Z M 40.449219 15.699219 " fill-opacity="1" fill-rule="nonzero"/><path fill="#004aad" d="M 35.425781 18.089844 C 35.496094 17.992188 35.574219 17.902344 35.660156 17.816406 C 35.863281 17.601562 36.101562 17.417969 36.359375 17.261719 C 36.890625 16.9375 37.496094 16.726562 38.023438 16.566406 C 38.152344 16.527344 38.226562 16.390625 38.1875 16.261719 C 38.148438 16.132812 38.011719 16.058594 37.882812 16.097656 C 37.09375 16.335938 36.140625 16.6875 35.433594 17.347656 L 30.542969 17.914062 C 30.46875 17.921875 30.402344 17.96875 30.363281 18.03125 C 29.84375 18.886719 28.785156 19.082031 27.730469 18.519531 C 27.609375 18.457031 27.460938 18.5 27.398438 18.621094 C 27.335938 18.738281 27.378906 18.886719 27.5 18.949219 C 27.96875 19.203125 28.449219 19.324219 28.902344 19.324219 C 29.636719 19.324219 30.296875 19 30.714844 18.386719 L 32.535156 18.175781 C 31.816406 18.4375 31.160156 18.796875 30.578125 19.261719 C 30.472656 19.347656 30.453125 19.5 30.539062 19.605469 C 30.585938 19.667969 30.660156 19.699219 30.730469 19.699219 C 30.785156 19.699219 30.839844 19.679688 30.882812 19.644531 C 32.058594 18.707031 33.484375 18.230469 35.234375 18.191406 C 35.308594 18.1875 35.378906 18.152344 35.425781 18.089844 Z M 35.425781 18.089844 " fill-opacity="1" fill-rule="nonzero"/><path fill="#004aad" d="M 27.785156 15.839844 L 25.242188 16.847656 C 25.117188 16.894531 25.054688 17.039062 25.105469 17.164062 C 25.144531 17.257812 25.234375 17.316406 25.332031 17.316406 C 25.363281 17.316406 25.394531 17.3125 25.421875 17.300781 L 27.964844 16.296875 C 28.089844 16.246094 28.148438 16.105469 28.101562 15.976562 C 28.050781 15.851562 27.910156 15.792969 27.78125 15.839844 Z M 27.785156 15.839844 " fill-opacity="1" fill-rule="nonzero"/><path fill="#004aad" d="M 28.242188 16.523438 L 25.253906 17.5625 C 25.125 17.605469 25.058594 17.746094 25.101562 17.875 C 25.136719 17.972656 25.230469 18.039062 25.332031 18.039062 C 25.359375 18.039062 25.386719 18.035156 25.414062 18.023438 L 28.402344 16.988281 C 28.53125 16.941406 28.597656 16.804688 28.554688 16.675781 C 28.511719 16.546875 28.371094 16.480469 28.242188 16.523438 Z M 28.242188 16.523438 " fill-opacity="1" fill-rule="nonzero"/><path fill="#004aad" d="M 25.792969 18.546875 C 25.828125 18.644531 25.921875 18.707031 26.019531 18.707031 C 26.050781 18.707031 26.078125 18.703125 26.105469 18.691406 L 28.75 17.726562 C 28.878906 17.679688 28.941406 17.539062 28.898438 17.414062 C 28.851562 17.285156 28.710938 17.222656 28.582031 17.265625 L 25.9375 18.234375 C 25.808594 18.28125 25.746094 18.421875 25.792969 18.546875 Z M 25.792969 18.546875 " fill-opacity="1" fill-rule="nonzero"/><path fill="#004aad" d="M 26.421875 36.121094 C 25.300781 36.148438 24.378906 35.742188 23.613281 34.886719 C 23.523438 34.785156 23.367188 34.777344 23.269531 34.867188 C 23.167969 34.957031 23.160156 35.113281 23.25 35.214844 C 24.082031 36.140625 25.117188 36.613281 26.332031 36.613281 C 26.367188 36.613281 26.398438 36.613281 26.433594 36.613281 C 26.570312 36.609375 26.675781 36.496094 26.671875 36.363281 C 26.671875 36.226562 26.558594 36.121094 26.425781 36.121094 Z M 26.421875 36.121094 " fill-opacity="1" fill-rule="nonzero"/><path fill="#004aad" d="M 25.773438 36.734375 C 24.597656 36.53125 23.746094 36.085938 23.167969 35.375 C 23.085938 35.269531 22.929688 35.253906 22.824219 35.335938 C 22.71875 35.421875 22.703125 35.578125 22.789062 35.679688 C 23.445312 36.492188 24.394531 36.992188 25.691406 37.214844 C 25.703125 37.21875 25.71875 37.21875 25.730469 37.21875 C 25.847656 37.21875 25.953125 37.136719 25.972656 37.015625 C 25.996094 36.882812 25.90625 36.757812 25.773438 36.734375 Z M 25.773438 36.734375 " fill-opacity="1" fill-rule="nonzero"/><path fill="#38b6ff" d="M 27.839844 37.277344 C 27.839844 37.367188 27.804688 37.445312 27.742188 37.511719 C 27.675781 37.574219 27.597656 37.609375 27.507812 37.609375 C 27.417969 37.609375 27.339844 37.574219 27.273438 37.511719 C 27.210938 37.445312 27.179688 37.367188 27.179688 37.277344 C 27.179688 37.1875 27.210938 37.109375 27.273438 37.042969 C 27.339844 36.980469 27.417969 36.949219 27.507812 36.949219 C 27.597656 36.949219 27.675781 36.980469 27.742188 37.042969 C 27.804688 37.109375 27.839844 37.1875 27.839844 37.277344 Z M 27.839844 37.277344 " fill-opacity="1" fill-rule="nonzero"/><path fill="#38b6ff" d="M 27.710938 35.769531 C 27.710938 35.878906 27.671875 35.972656 27.59375 36.050781 C 27.515625 36.125 27.421875 36.164062 27.3125 36.164062 C 27.203125 36.164062 27.109375 36.125 27.035156 36.050781 C 26.957031 35.972656 26.917969 35.878906 26.917969 35.769531 C 26.917969 35.660156 26.957031 35.566406 27.035156 35.488281 C 27.109375 35.410156 27.203125 35.375 27.3125 35.375 C 27.421875 35.375 27.515625 35.410156 27.59375 35.488281 C 27.671875 35.566406 27.710938 35.660156 27.710938 35.769531 Z M 27.710938 35.769531 " fill-opacity="1" fill-rule="nonzero"/><path fill="#38b6ff" d="M 27.925781 34.109375 C 27.925781 34.242188 27.878906 34.355469 27.785156 34.449219 C 27.691406 34.542969 27.578125 34.589844 27.445312 34.589844 C 27.308594 34.589844 27.195312 34.542969 27.101562 34.449219 C 27.007812 34.355469 26.960938 34.242188 26.960938 34.109375 C 26.960938 33.972656 27.007812 33.859375 27.101562 33.765625 C 27.195312 33.671875 27.308594 33.625 27.445312 33.625 C 27.578125 33.625 27.691406 33.671875 27.785156 33.765625 C 27.878906 33.859375 27.925781 33.972656 27.925781 34.109375 Z M 27.925781 34.109375 " fill-opacity="1" fill-rule="nonzero"/><path fill="#38b6ff" d="M 28.121094 32.089844 C 28.121094 32.226562 28.074219 32.339844 27.980469 32.433594 C 27.886719 32.527344 27.773438 32.574219 27.636719 32.574219 C 27.503906 32.574219 27.390625 32.527344 27.296875 32.433594 C 27.203125 32.339844 27.15625 32.226562 27.15625 32.089844 C 27.15625 31.957031 27.203125 31.84375 27.296875 31.75 C 27.390625 31.65625 27.503906 31.609375 27.636719 31.609375 C 27.773438 31.609375 27.886719 31.65625 27.980469 31.75 C 28.074219 31.84375 28.121094 31.957031 28.121094 32.089844 Z M 28.121094 32.089844 " fill-opacity="1" fill-rule="nonzero"/><path fill="#38b6ff" d="M 28.683594 20.417969 C 28.683594 20.507812 28.652344 20.585938 28.585938 20.648438 C 28.523438 20.714844 28.445312 20.746094 28.351562 20.746094 C 28.261719 20.746094 28.183594 20.714844 28.121094 20.648438 C 28.054688 20.585938 28.023438 20.507812 28.023438 20.417969 C 28.023438 20.324219 28.054688 20.246094 28.121094 20.183594 C 28.183594 20.117188 28.261719 20.085938 28.351562 20.085938 C 28.445312 20.085938 28.523438 20.117188 28.585938 20.183594 C 28.652344 20.246094 28.683594 20.324219 28.683594 20.417969 Z M 28.683594 20.417969 " fill-opacity="1" fill-rule="nonzero"/><path fill="#38b6ff" d="M 28.75 21.925781 C 28.75 22.035156 28.710938 22.128906 28.632812 22.203125 C 28.554688 22.28125 28.460938 22.320312 28.351562 22.320312 C 28.242188 22.320312 28.152344 22.28125 28.074219 22.203125 C 27.996094 22.128906 27.957031 22.035156 27.957031 21.925781 C 27.957031 21.816406 27.996094 21.722656 28.074219 21.644531 C 28.152344 21.566406 28.242188 21.527344 28.351562 21.527344 C 28.460938 21.527344 28.554688 21.566406 28.632812 21.644531 C 28.710938 21.722656 28.75 21.816406 28.75 21.925781 Z M 28.75 21.925781 " fill-opacity="1" fill-rule="nonzero"/><path fill="#38b6ff" d="M 28.835938 23.585938 C 28.835938 23.71875 28.789062 23.832031 28.695312 23.929688 C 28.601562 24.023438 28.488281 24.070312 28.351562 24.070312 C 28.21875 24.070312 28.105469 24.023438 28.011719 23.929688 C 27.917969 23.832031 27.871094 23.71875 27.871094 23.585938 C 27.871094 23.453125 27.917969 23.339844 28.011719 23.246094 C 28.105469 23.148438 28.21875 23.101562 28.351562 23.101562 C 28.488281 23.101562 28.601562 23.148438 28.695312 23.246094 C 28.789062 23.339844 28.835938 23.453125 28.835938 23.585938 Z M 28.835938 23.585938 " fill-opacity="1" fill-rule="nonzero"/><path fill="#38b6ff" d="M 28.707031 25.601562 C 28.707031 25.734375 28.660156 25.851562 28.566406 25.945312 C 28.46875 26.039062 28.355469 26.085938 28.222656 26.085938 C 28.089844 26.085938 27.976562 26.039062 27.882812 25.945312 C 27.785156 25.851562 27.738281 25.734375 27.738281 25.601562 C 27.738281 25.46875 27.785156 25.355469 27.882812 25.261719 C 27.976562 25.167969 28.089844 25.121094 28.222656 25.121094 C 28.355469 25.121094 28.46875 25.167969 28.566406 25.261719 C 28.660156 25.355469 28.707031 25.46875 28.707031 25.601562 Z M 28.707031 25.601562 " fill-opacity="1" fill-rule="nonzero"/><path fill="#38b6ff" d="M 28.632812 29.96875 C 28.632812 30.136719 28.574219 30.277344 28.457031 30.394531 C 28.335938 30.511719 28.195312 30.574219 28.027344 30.574219 C 27.863281 30.574219 27.71875 30.511719 27.601562 30.394531 C 27.484375 30.277344 27.425781 30.136719 27.425781 29.96875 C 27.425781 29.800781 27.484375 29.660156 27.601562 29.542969 C 27.71875 29.421875 27.863281 29.363281 28.027344 29.363281 C 28.195312 29.363281 28.335938 29.421875 28.457031 29.542969 C 28.574219 29.660156 28.632812 29.800781 28.632812 29.96875 Z M 28.632812 29.96875 " fill-opacity="1" fill-rule="nonzero"/><path fill="#38b6ff" d="M 28.828125 27.726562 C 28.828125 27.890625 28.769531 28.035156 28.648438 28.152344 C 28.53125 28.269531 28.390625 28.328125 28.222656 28.328125 C 28.054688 28.328125 27.914062 28.269531 27.796875 28.152344 C 27.679688 28.035156 27.621094 27.890625 27.621094 27.726562 C 27.621094 27.558594 27.679688 27.417969 27.796875 27.296875 C 27.914062 27.179688 28.054688 27.121094 28.222656 27.121094 C 28.390625 27.121094 28.53125 27.179688 28.648438 27.296875 C 28.769531 27.417969 28.828125 27.558594 28.828125 27.726562 Z M 28.828125 27.726562 " fill-opacity="1" fill-rule="nonzero"/><g clip-path="url(#c0fc7e2692)"><path fill="#38b6ff" d="M 40.851562 37.78125 C 44.539062 33.925781 46.304688 28.933594 46.175781 23.988281 C 45.992188 28.410156 44.265625 32.785156 40.964844 36.234375 C 33.765625 43.761719 21.832031 44.027344 14.304688 36.832031 C 7.8125 30.621094 6.722656 20.890625 11.164062 13.503906 C 5.832031 21.148438 6.714844 31.746094 13.660156 38.386719 C 21.335938 45.730469 33.507812 45.457031 40.851562 37.78125 Z M 40.851562 37.78125 " fill-opacity="1" fill-rule="nonzero"/></g><path fill="#004aad" d="M 14.054688 39.964844 C 5.433594 32.546875 4.457031 19.546875 11.871094 10.925781 C 19.125 2.492188 31.722656 1.375 40.335938 8.269531 C 40.152344 8.097656 39.964844 7.929688 39.773438 7.761719 C 30.765625 0.015625 17.1875 1.039062 9.441406 10.042969 C 1.695312 19.050781 2.71875 32.628906 11.722656 40.375 C 18.265625 46.003906 27.21875 47.003906 34.601562 43.675781 C 27.816406 46.167969 19.921875 45.007812 14.054688 39.964844 Z M 14.054688 39.964844 " fill-opacity="1" fill-rule="nonzero"/><path fill="#38b6ff" d="M 42.890625 11.203125 C 42.890625 11.464844 42.796875 11.691406 42.609375 11.878906 C 42.421875 12.0625 42.199219 12.15625 41.933594 12.15625 C 41.671875 12.15625 41.445312 12.0625 41.257812 11.878906 C 41.074219 11.691406 40.980469 11.464844 40.980469 11.203125 C 40.980469 10.9375 41.074219 10.710938 41.257812 10.527344 C 41.445312 10.339844 41.671875 10.246094 41.933594 10.246094 C 42.199219 10.246094 42.421875 10.339844 42.609375 10.527344 C 42.796875 10.710938 42.890625 10.9375 42.890625 11.203125 Z M 42.890625 11.203125 " fill-opacity="1" fill-rule="nonzero"/><g clip-path="url(#2933bd65f0)"><path fill="#38b6ff" d="M 46.183594 19.8125 C 46.183594 20.074219 46.089844 20.300781 45.902344 20.488281 C 45.714844 20.675781 45.492188 20.765625 45.226562 20.765625 C 44.964844 20.765625 44.738281 20.675781 44.550781 20.488281 C 44.363281 20.300781 44.273438 20.074219 44.273438 19.8125 C 44.273438 19.546875 44.363281 19.324219 44.550781 19.136719 C 44.738281 18.949219 44.964844 18.855469 45.226562 18.855469 C 45.492188 18.855469 45.714844 18.949219 45.902344 19.136719 C 46.089844 19.324219 46.183594 19.546875 46.183594 19.8125 Z M 46.183594 19.8125 " fill-opacity="1" fill-rule="nonzero"/></g><path fill="#38b6ff" d="M 44.800781 15.214844 C 44.800781 15.480469 44.707031 15.703125 44.519531 15.890625 C 44.335938 16.078125 44.109375 16.171875 43.84375 16.171875 C 43.582031 16.171875 43.355469 16.078125 43.167969 15.890625 C 42.984375 15.703125 42.890625 15.480469 42.890625 15.214844 C 42.890625 14.949219 42.984375 14.726562 43.167969 14.539062 C 43.355469 14.351562 43.582031 14.257812 43.84375 14.257812 C 44.109375 14.257812 44.335938 14.351562 44.519531 14.539062 C 44.707031 14.726562 44.800781 14.949219 44.800781 15.214844 Z M 44.800781 15.214844 " fill-opacity="1" fill-rule="nonzero"/><g clip-path="url(#b3fb46e613)"><path fill="#004aad" d="M 7.875 15.53125 C 7.847656 15.523438 7.828125 15.503906 7.804688 15.476562 C 7.792969 15.464844 7.78125 15.453125 7.765625 15.4375 L 7.757812 15.433594 C 7.738281 15.355469 7.71875 15.296875 7.699219 15.257812 C 7.699219 15.257812 7.695312 15.253906 7.695312 15.253906 C 7.691406 15.253906 7.691406 15.257812 7.6875 15.257812 C 7.648438 15.304688 7.613281 15.335938 7.582031 15.359375 C 7.578125 15.359375 7.578125 15.363281 7.578125 15.363281 C 7.578125 15.367188 7.578125 15.371094 7.582031 15.371094 C 7.582031 15.371094 7.757812 15.449219 7.761719 15.453125 C 7.773438 15.464844 7.785156 15.476562 7.796875 15.488281 C 7.816406 15.511719 7.839844 15.535156 7.875 15.542969 C 7.878906 15.542969 7.878906 15.539062 7.882812 15.539062 C 7.882812 15.535156 7.878906 15.53125 7.875 15.53125 Z M 7.597656 15.363281 C 7.628906 15.339844 7.660156 15.3125 7.691406 15.273438 C 7.710938 15.308594 7.726562 15.359375 7.742188 15.429688 Z M 7.597656 15.363281 " fill-opacity="1" fill-rule="nonzero"/></g><g clip-path="url(#431df72d9b)"><path fill="#004aad" d="M 8.234375 15.019531 C 8.230469 15.011719 8.21875 15.003906 8.203125 15 C 8.140625 14.992188 8.085938 15 8.039062 15.003906 C 8.011719 15.007812 7.984375 15.011719 7.960938 15.007812 C 7.960938 15.007812 7.957031 15.007812 7.957031 15.007812 C 7.957031 14.96875 7.953125 14.957031 7.941406 14.953125 C 7.941406 14.953125 7.9375 14.953125 7.9375 14.953125 C 7.9375 14.953125 7.925781 14.828125 7.820312 14.839844 C 7.792969 14.84375 7.773438 14.859375 7.757812 14.882812 C 7.757812 14.886719 7.757812 14.886719 7.757812 14.886719 C 7.746094 14.925781 7.75 14.960938 7.769531 15 C 7.765625 15.003906 7.765625 15.011719 7.765625 15.019531 C 7.769531 15.03125 7.78125 15.042969 7.800781 15.054688 L 7.800781 15.082031 C 7.714844 15.09375 7.621094 15.117188 7.585938 15.226562 C 7.503906 15.300781 7.46875 15.363281 7.472656 15.425781 C 7.472656 15.425781 7.472656 15.429688 7.476562 15.429688 C 7.523438 15.449219 7.574219 15.457031 7.621094 15.464844 C 7.664062 15.46875 7.703125 15.476562 7.726562 15.492188 C 7.730469 15.515625 7.734375 15.535156 7.742188 15.554688 C 7.738281 15.574219 7.734375 15.589844 7.726562 15.597656 C 7.722656 15.597656 7.722656 15.605469 7.726562 15.605469 C 7.726562 15.605469 7.726562 15.609375 7.730469 15.609375 C 7.730469 15.609375 7.734375 15.605469 7.734375 15.605469 C 7.742188 15.597656 7.75 15.585938 7.753906 15.566406 C 7.765625 15.582031 7.785156 15.589844 7.804688 15.597656 C 7.808594 15.597656 7.808594 15.597656 7.808594 15.597656 C 7.8125 15.597656 7.8125 15.59375 7.8125 15.589844 C 7.816406 15.585938 7.8125 15.585938 7.808594 15.582031 C 7.785156 15.578125 7.769531 15.566406 7.757812 15.550781 C 7.753906 15.546875 7.75 15.539062 7.75 15.53125 C 7.742188 15.519531 7.742188 15.503906 7.742188 15.488281 C 7.742188 15.484375 7.738281 15.484375 7.738281 15.480469 C 7.710938 15.464844 7.667969 15.457031 7.621094 15.449219 C 7.578125 15.445312 7.53125 15.4375 7.484375 15.417969 C 7.484375 15.363281 7.519531 15.304688 7.597656 15.234375 C 7.597656 15.234375 7.597656 15.230469 7.597656 15.230469 C 7.632812 15.125 7.71875 15.105469 7.808594 15.09375 C 7.8125 15.09375 7.816406 15.089844 7.816406 15.085938 L 7.816406 15.050781 C 7.816406 15.046875 7.8125 15.046875 7.8125 15.046875 C 7.792969 15.035156 7.78125 15.023438 7.777344 15.015625 C 7.777344 15.011719 7.777344 15.007812 7.78125 15.003906 C 7.785156 15 7.785156 14.996094 7.78125 14.996094 C 7.761719 14.960938 7.757812 14.925781 7.769531 14.890625 C 7.78125 14.867188 7.800781 14.855469 7.820312 14.851562 C 7.917969 14.847656 7.925781 14.960938 7.925781 14.960938 C 7.925781 14.964844 7.929688 14.96875 7.933594 14.96875 C 7.933594 14.96875 7.9375 14.96875 7.9375 14.964844 C 7.941406 14.96875 7.941406 14.976562 7.945312 15.003906 C 7.914062 14.992188 7.878906 14.992188 7.855469 15.027344 C 7.851562 15.027344 7.855469 15.035156 7.855469 15.035156 C 7.859375 15.039062 7.863281 15.035156 7.867188 15.035156 C 7.886719 15.007812 7.914062 15.003906 7.957031 15.019531 C 7.960938 15.023438 7.960938 15.023438 7.960938 15.023438 C 7.984375 15.023438 8.011719 15.019531 8.039062 15.015625 C 8.085938 15.011719 8.140625 15.007812 8.199219 15.011719 C 8.210938 15.015625 8.21875 15.019531 8.222656 15.027344 C 8.226562 15.03125 8.226562 15.039062 8.222656 15.046875 C 8.195312 15.113281 8.152344 15.160156 8.082031 15.199219 C 8.082031 15.199219 8.078125 15.199219 8.078125 15.203125 C 8.046875 15.328125 8.007812 15.484375 8.007812 15.609375 C 8.007812 15.609375 8.011719 15.613281 8.015625 15.613281 C 8.019531 15.613281 8.023438 15.609375 8.023438 15.605469 C 8.019531 15.488281 8.058594 15.332031 8.089844 15.207031 C 8.160156 15.167969 8.207031 15.117188 8.234375 15.054688 C 8.238281 15.039062 8.238281 15.03125 8.234375 15.019531 Z M 8.234375 15.019531 " fill-opacity="1" fill-rule="nonzero"/></g><g clip-path="url(#444ec81d08)"><path fill="#004aad" d="M 8.101562 15.082031 C 8.105469 15.082031 8.105469 15.078125 8.109375 15.078125 C 8.113281 15.070312 8.121094 15.066406 8.128906 15.0625 C 8.140625 15.054688 8.15625 15.046875 8.171875 15.042969 C 8.175781 15.042969 8.175781 15.039062 8.175781 15.035156 C 8.175781 15.03125 8.171875 15.03125 8.167969 15.03125 C 8.148438 15.039062 8.121094 15.046875 8.101562 15.0625 L 7.976562 15.078125 C 7.972656 15.078125 7.972656 15.082031 7.972656 15.082031 C 7.957031 15.105469 7.929688 15.109375 7.902344 15.09375 C 7.898438 15.09375 7.894531 15.09375 7.894531 15.097656 C 7.890625 15.101562 7.894531 15.105469 7.894531 15.105469 C 7.910156 15.113281 7.921875 15.117188 7.933594 15.117188 C 7.953125 15.117188 7.96875 15.105469 7.980469 15.089844 L 8.027344 15.085938 C 8.007812 15.09375 7.992188 15.101562 7.976562 15.113281 C 7.972656 15.117188 7.972656 15.121094 7.976562 15.125 C 7.976562 15.125 7.980469 15.125 7.980469 15.125 C 7.980469 15.125 7.984375 15.125 7.984375 15.125 C 8.015625 15.097656 8.050781 15.085938 8.097656 15.085938 C 8.101562 15.085938 8.101562 15.085938 8.101562 15.082031 Z M 8.101562 15.082031 " fill-opacity="1" fill-rule="nonzero"/></g><g clip-path="url(#282587d7f3)"><path fill="#004aad" d="M 7.902344 15.023438 L 7.835938 15.050781 C 7.832031 15.050781 7.832031 15.054688 7.832031 15.058594 C 7.835938 15.0625 7.835938 15.0625 7.839844 15.0625 L 7.90625 15.035156 C 7.910156 15.035156 7.914062 15.03125 7.910156 15.027344 C 7.910156 15.023438 7.90625 15.023438 7.902344 15.023438 Z M 7.902344 15.023438 " fill-opacity="1" fill-rule="nonzero"/><path fill="#004aad" d="M 7.914062 15.042969 L 7.835938 15.070312 C 7.832031 15.070312 7.832031 15.074219 7.832031 15.078125 C 7.835938 15.082031 7.835938 15.082031 7.839844 15.082031 L 7.917969 15.054688 C 7.921875 15.054688 7.925781 15.050781 7.921875 15.046875 C 7.921875 15.042969 7.917969 15.042969 7.914062 15.042969 Z M 7.914062 15.042969 " fill-opacity="1" fill-rule="nonzero"/><path fill="#004aad" d="M 7.851562 15.09375 C 7.851562 15.097656 7.855469 15.097656 7.855469 15.097656 C 7.859375 15.097656 7.859375 15.097656 7.859375 15.097656 L 7.929688 15.074219 C 7.933594 15.074219 7.933594 15.070312 7.933594 15.066406 C 7.929688 15.0625 7.925781 15.0625 7.925781 15.0625 L 7.855469 15.085938 C 7.851562 15.089844 7.851562 15.09375 7.851562 15.09375 Z M 7.851562 15.09375 " fill-opacity="1" fill-rule="nonzero"/><path fill="#004aad" d="M 7.867188 15.554688 C 7.839844 15.554688 7.8125 15.542969 7.792969 15.523438 C 7.792969 15.519531 7.789062 15.519531 7.785156 15.523438 C 7.78125 15.523438 7.78125 15.527344 7.785156 15.53125 C 7.804688 15.554688 7.832031 15.566406 7.867188 15.566406 C 7.871094 15.566406 7.875 15.566406 7.875 15.5625 C 7.875 15.558594 7.871094 15.554688 7.867188 15.554688 Z M 7.867188 15.554688 " fill-opacity="1" fill-rule="nonzero"/><path fill="#004aad" d="M 7.851562 15.570312 C 7.820312 15.566406 7.796875 15.554688 7.78125 15.535156 C 7.78125 15.53125 7.777344 15.53125 7.773438 15.535156 C 7.769531 15.535156 7.769531 15.539062 7.773438 15.542969 C 7.789062 15.566406 7.816406 15.578125 7.847656 15.582031 C 7.847656 15.582031 7.847656 15.582031 7.851562 15.582031 C 7.851562 15.582031 7.855469 15.582031 7.855469 15.578125 C 7.855469 15.574219 7.855469 15.570312 7.851562 15.570312 Z M 7.851562 15.570312 " fill-opacity="1" fill-rule="nonzero"/><path fill="#004aad" d="M 7.90625 15.585938 C 7.90625 15.589844 7.902344 15.59375 7.894531 15.59375 C 7.890625 15.59375 7.886719 15.589844 7.886719 15.585938 C 7.886719 15.578125 7.890625 15.578125 7.894531 15.578125 C 7.902344 15.578125 7.90625 15.578125 7.90625 15.585938 Z M 7.90625 15.585938 " fill-opacity="1" fill-rule="nonzero"/><path fill="#004aad" d="M 7.902344 15.546875 C 7.902344 15.550781 7.898438 15.554688 7.890625 15.554688 C 7.882812 15.554688 7.878906 15.550781 7.878906 15.546875 C 7.878906 15.539062 7.882812 15.535156 7.890625 15.535156 C 7.898438 15.535156 7.902344 15.539062 7.902344 15.546875 Z M 7.902344 15.546875 " fill-opacity="1" fill-rule="nonzero"/><path fill="#004aad" d="M 7.90625 15.503906 C 7.90625 15.511719 7.902344 15.515625 7.894531 15.515625 C 7.886719 15.515625 7.882812 15.511719 7.882812 15.503906 C 7.882812 15.492188 7.886719 15.488281 7.894531 15.488281 C 7.902344 15.488281 7.90625 15.492188 7.90625 15.503906 Z M 7.90625 15.503906 " fill-opacity="1" fill-rule="nonzero"/><path fill="#004aad" d="M 7.914062 15.449219 C 7.914062 15.457031 7.90625 15.460938 7.898438 15.460938 C 7.890625 15.460938 7.886719 15.457031 7.886719 15.449219 C 7.886719 15.441406 7.890625 15.4375 7.898438 15.4375 C 7.90625 15.4375 7.914062 15.441406 7.914062 15.449219 Z M 7.914062 15.449219 " fill-opacity="1" fill-rule="nonzero"/><path fill="#004aad" d="M 7.925781 15.144531 C 7.925781 15.148438 7.925781 15.152344 7.917969 15.152344 C 7.914062 15.152344 7.910156 15.148438 7.910156 15.144531 C 7.910156 15.136719 7.914062 15.136719 7.917969 15.136719 C 7.925781 15.136719 7.925781 15.136719 7.925781 15.144531 Z M 7.925781 15.144531 " fill-opacity="1" fill-rule="nonzero"/><path fill="#004aad" d="M 7.929688 15.183594 C 7.929688 15.191406 7.925781 15.195312 7.917969 15.195312 C 7.910156 15.195312 7.90625 15.191406 7.90625 15.183594 C 7.90625 15.175781 7.910156 15.171875 7.917969 15.171875 C 7.925781 15.171875 7.929688 15.175781 7.929688 15.183594 Z M 7.929688 15.183594 " fill-opacity="1" fill-rule="nonzero"/><path fill="#004aad" d="M 7.929688 15.226562 C 7.929688 15.234375 7.925781 15.238281 7.917969 15.238281 C 7.910156 15.238281 7.90625 15.234375 7.90625 15.226562 C 7.90625 15.21875 7.910156 15.214844 7.917969 15.214844 C 7.925781 15.214844 7.929688 15.21875 7.929688 15.226562 Z M 7.929688 15.226562 " fill-opacity="1" fill-rule="nonzero"/><path fill="#004aad" d="M 7.925781 15.28125 C 7.925781 15.289062 7.921875 15.292969 7.914062 15.292969 C 7.90625 15.292969 7.902344 15.289062 7.902344 15.28125 C 7.902344 15.269531 7.90625 15.265625 7.914062 15.265625 C 7.921875 15.265625 7.925781 15.269531 7.925781 15.28125 Z M 7.925781 15.28125 " fill-opacity="1" fill-rule="nonzero"/><path fill="#004aad" d="M 7.925781 15.394531 C 7.925781 15.40625 7.921875 15.410156 7.910156 15.410156 C 7.898438 15.410156 7.894531 15.40625 7.894531 15.394531 C 7.894531 15.382812 7.898438 15.378906 7.910156 15.378906 C 7.921875 15.378906 7.925781 15.382812 7.925781 15.394531 Z M 7.925781 15.394531 " fill-opacity="1" fill-rule="nonzero"/><path fill="#004aad" d="M 7.929688 15.335938 C 7.929688 15.347656 7.925781 15.351562 7.914062 15.351562 C 7.90625 15.351562 7.898438 15.347656 7.898438 15.335938 C 7.898438 15.324219 7.90625 15.320312 7.914062 15.320312 C 7.925781 15.320312 7.929688 15.324219 7.929688 15.335938 Z M 7.929688 15.335938 " fill-opacity="1" fill-rule="nonzero"/></g><g clip-path="url(#3364fec086)"><path fill="#004aad" d="M 8.246094 15.597656 C 8.339844 15.496094 8.386719 15.367188 8.382812 15.238281 C 8.378906 15.351562 8.335938 15.46875 8.246094 15.558594 C 8.058594 15.753906 7.746094 15.761719 7.550781 15.574219 C 7.382812 15.410156 7.351562 15.15625 7.46875 14.964844 C 7.328125 15.164062 7.351562 15.441406 7.535156 15.613281 C 7.734375 15.804688 8.054688 15.800781 8.246094 15.597656 Z M 8.246094 15.597656 " fill-opacity="1" fill-rule="nonzero"/><path fill="#004aad" d="M 7.542969 15.65625 C 7.320312 15.460938 7.292969 15.121094 7.488281 14.894531 C 7.675781 14.675781 8.007812 14.644531 8.230469 14.828125 C 8.226562 14.820312 8.222656 14.816406 8.21875 14.8125 C 7.980469 14.609375 7.625 14.636719 7.425781 14.875 C 7.222656 15.109375 7.25 15.464844 7.484375 15.667969 C 7.65625 15.8125 7.886719 15.839844 8.082031 15.753906 C 7.902344 15.816406 7.699219 15.789062 7.542969 15.65625 Z M 7.542969 15.65625 " fill-opacity="1" fill-rule="nonzero"/></g><g clip-path="url(#b9df078323)"><path fill="#004aad" d="M 8.296875 14.902344 C 8.296875 14.921875 8.289062 14.929688 8.273438 14.929688 C 8.257812 14.929688 8.25 14.921875 8.25 14.902344 C 8.25 14.886719 8.257812 14.878906 8.273438 14.878906 C 8.289062 14.878906 8.296875 14.886719 8.296875 14.902344 Z M 8.296875 14.902344 " fill-opacity="1" fill-rule="nonzero"/></g><g clip-path="url(#0eec4a502e)"><path fill="#004aad" d="M 8.382812 15.128906 C 8.382812 15.144531 8.375 15.152344 8.359375 15.152344 C 8.34375 15.152344 8.335938 15.144531 8.335938 15.128906 C 8.335938 15.113281 8.34375 15.101562 8.359375 15.101562 C 8.375 15.101562 8.382812 15.113281 8.382812 15.128906 Z M 8.382812 15.128906 " fill-opacity="1" fill-rule="nonzero"/></g><g clip-path="url(#33c83de74f)"><path fill="#004aad" d="M 8.347656 15.007812 C 8.347656 15.023438 8.339844 15.03125 8.324219 15.03125 C 8.304688 15.03125 8.296875 15.023438 8.296875 15.007812 C 8.296875 14.992188 8.304688 14.984375 8.324219 14.984375 C 8.339844 14.984375 8.347656 14.992188 8.347656 15.007812 Z M 8.347656 15.007812 " fill-opacity="1" fill-rule="nonzero"/></g></svg>